<svg width="1112" height="31" viewBox="0 0 1112 31" fill="none" xmlns="http://www.w3.org/2000/svg">
<path d="M736.953 24.7954C740.745 24.8266 746.956 24.8812 754.664 24.9514C762.381 24.9982 771.596 25.0684 781.419 25.0528C801.066 25.0997 823.116 24.8422 840.344 24.5457C850.308 24.3038 860.279 24.1478 870.235 23.8122L885.177 23.3597L900.111 22.7901L907.578 22.5014L915.045 22.1503L929.971 21.4481L944.889 20.6132L952.349 20.1997L959.8 19.7159L974.703 18.7406L989.598 17.6249C999.53 16.9304 1009.44 15.9863 1019.36 15.1671C1039.17 13.3023 1058.96 11.3438 1078.69 8.90947C1081.78 8.54275 1085.4 8.1136 1089.1 7.66886C1092.79 7.19291 1096.56 6.73257 1099.93 6.37365C1106.68 5.66363 1111.88 5.38273 1111.79 6.28783C1111.71 7.22413 1108.2 8.45691 1102.02 9.81455C1098.93 10.4934 1095.17 11.2112 1090.83 11.9368C1086.49 12.6391 1081.57 13.2945 1076.18 13.9655C1050.08 17.1567 1023.84 19.7081 997.595 21.8226C971.356 23.9137 945.116 25.5288 919.001 26.9332C899.9 28.0022 880.784 28.681 861.684 29.2662C842.575 29.7422 823.467 30.1323 804.359 30.2337C766.142 30.5146 727.949 30.1557 689.748 29.3832C621.14 28.0022 552.556 24.7642 484.105 20.0983C419.812 15.7523 355.621 10.6728 291.367 7.8015C277.502 7.14609 263.637 6.68575 249.772 6.25661L239.371 6.01473L234.175 5.88989L228.978 5.81187L218.578 5.65581L208.177 5.6012C180.439 5.46076 152.709 6.24881 125.026 8.05119C121.772 8.27746 118.355 8.57396 114.828 8.87045C113.064 9.0265 111.285 9.18255 109.475 9.3386C107.673 9.50245 105.855 9.71312 104.029 9.90038C100.378 10.2827 96.6791 10.665 93.012 11.0473C89.3448 11.4687 85.7088 11.89 82.1509 12.2958C80.684 12.4596 79.0845 12.6391 77.4069 12.8185C75.7294 13.037 73.9504 13.2633 72.1168 13.4973C68.4497 13.9811 64.5406 14.4336 60.6394 14.9876C56.7381 15.5494 52.8447 16.1034 49.2009 16.6261C47.3751 16.8758 45.6195 17.1411 43.9576 17.4142C42.2957 17.6717 40.7196 17.9214 39.2761 18.1476C36.7715 18.5378 34.2279 18.9357 31.6921 19.3258C29.1641 19.7627 26.6595 20.2387 24.2251 20.7225C21.4318 21.2764 18.896 21.7758 16.6098 22.2205C14.3315 22.6809 12.2951 23.0944 10.5083 23.4533C6.92693 24.1556 4.31309 24.5847 2.61215 24.7485C-0.789746 25.0762 -0.547876 24.3506 2.97105 22.5794C4.52375 21.7992 2.5029 21.6353 7.84762 20.1997C8.06609 20.1373 8.51085 20.0202 8.71371 19.9656C24.8961 15.3855 41.9914 12.9043 59.1491 10.4934C101.283 4.45424 143.822 1.59852 186.346 0.833871C228.877 0.0614225 271.401 1.35664 313.838 3.58036C365.92 6.32684 417.932 10.5948 469.803 14.0591C484.003 14.9954 498.227 15.7289 512.631 16.7822L512.381 16.7666C527.424 17.6561 542.483 18.4207 557.526 19.2088C614.461 22.2361 673.986 23.9839 728.69 24.7876C730.875 24.7798 733.785 24.7876 736.953 24.7954Z" fill="black"/>
</svg>
